<?xml version="1.0" encoding="UTF-8"?>
<svg width="133px" height="133px" viewBox="0 0 133 133" version="1.1" xmlns="http://www.w3.org/2000/svg" xmlns:xlink="http://www.w3.org/1999/xlink">
    <!-- Generator: Sketch 53.1 (72631) - https://sketchapp.com -->
    <title>Logo</title>
    <desc>Created with Sketch.</desc>
    <defs>
        <circle id="path-1" cx="66.5" cy="66.5" r="66.5"></circle>
    </defs>
    <g id="Page-1" stroke="none" stroke-width="1" fill="none" fill-rule="evenodd">
        <g id="icons" transform="translate(-193.000000, -30.000000)">
            <g id="Logo" transform="translate(193.000000, 30.000000)">
                <mask id="mask-2" fill="white">
                    <use xlink:href="#path-1"></use>
                </mask>
                <use id="Oval" fill="#3E746E" xlink:href="#path-1"></use>
                <path d="M45.2611203,70.2777603 L46.6131335,65.2213405 C47.3753285,60.3547611 47.9007013,57.079577 48.189252,55.3957882 C48.200808,55.3283552 53.1669682,45.0372699 54.172775,45.0922434 C55.1785817,45.1472169 57.5041995,44.1399278 60.3639966,45.7814383 C63.2237936,47.4229487 64.3336506,49.2515814 67.6720575,52.8407701 C71.7011101,57.1724859 78.7683153,68.204901 83.0562443,67.5784471 C90.8970811,66.4329237 104.294063,61.8501439 123.247189,53.8301075 L123.272681,115.730669 C119.16624,118.453159 116.945737,119.903538 116.611173,120.081807 C115.396084,120.729254 111.965909,122.587104 111.337673,122.883655 C109.077741,123.950427 107.588958,124.541976 106.362779,125.025528 C103.519345,126.146857 101.655511,126.70474 99.7565828,127.19804 C99.0309564,127.386542 97.1350915,127.839061 96.5502946,127.981393 C88.6446162,129.905531 81.0191533,129.883998 76.6747878,129.520746 C72.9429139,129.208707 69.6992831,128.857874 66.2623008,128.108926 C64.1585694,127.650505 61.8600158,127.014088 59.584473,126.284078 C57.9102052,125.746962 55.9701027,124.969503 54.102531,124.25313 C52.5368118,123.652543 50.0254755,122.436616 46.5685219,120.605348 L45.2611203,70.2777603 Z" id="Rectangle-7" fill="#1C2827" fill-rule="nonzero" mask="url(#mask-2)" transform="translate(84.266901, 87.274293) rotate(-30.000000) translate(-84.266901, -87.274293) "></path>
                <path d="M38.7356587,75.8659421 L38.4126759,75.0421311 L38.04565,74.1724382 L37.7467441,73.1604819 L37.4320806,72.0830923 L37.2332015,70.9809441 L37.0342245,70.1031948 L37.0342245,69.3317501 L37.0342245,68.7727179 L37.2332015,68.1958046 L37.5841761,67.5276187 L38.4126759,67.3921344 L39.6037974,67.3921344 L41.2640268,67.5276187 L43.3047888,67.8629397 L45.8554721,68.5397715 L48.21677,69.4691011 L49.9573537,70.3350606 L51.9623917,71.5689595 L54.6717281,73.6461226 L56.3161021,75.4170462 L58.0113703,77.6670279 L59.1753807,79.7162885 L60.1732018,81.7518926 L60.8322825,83.6432685 L61.4005365,85.7284879 L61.6156626,87.537237 L61.6156626,88.7095344 L61.0892985,89.527254 L59.8921089,89.9837151 L57.8535981,89.9837151 L55.7087965,89.9837151 L54.520024,89.6833704 L52.4092825,89.1673709 L50.417751,88.4990867 L48.5464082,87.537237 L46.968001,86.4903044 L45.4508627,85.238033 L43.779182,83.6432685 L42.5791541,82.2244664 L41.053305,80.1663634 L39.9811979,78.2971917 L38.7356587,75.8659421 Z M73.3033225,78.4641313 L74.4127143,76.742791 L75.59559,75.0513555 L77.5413812,73.1890093 L79.994519,71.3757796 L82.0646192,70.1920013 L84.6071295,69.0693919 L86.9767627,68.2519931 L89.2752591,67.7750564 L91.490251,67.4519029 L93.160071,67.4519029 L94.9719842,67.4519029 L95.8415147,67.9060939 L96.0481546,68.6879694 L96.0481546,69.4644076 L96.0481546,70.4605104 L95.7072755,71.6925895 L95.3050093,72.9580171 L94.6976379,74.3214963 L93.9319238,75.8110289 L93.4122999,76.8856092 L92.6670782,78.1059077 L91.7454589,79.4619559 L90.8279922,80.5831153 L89.4968847,82.0413837 L88.1822072,83.3230324 L86.8539885,84.4237115 L85.3729338,85.453344 L84.0243129,86.2732802 L82.2604261,87.2518932 L80.9663314,87.8312314 L79.2144512,88.5093461 L77.5413812,89.0036821 L76.0448895,89.3663462 L74.4127143,89.6170937 L72.9572075,89.6170937 L72.0472337,89.6170937 L71.562817,89.2038632 L71.3383929,88.5093461 L71.2194102,86.9609101 L71.2194102,85.453344 L71.3383929,83.7845637 L71.7625057,82.0413837 L72.2575748,80.5831153 L72.789747,79.4619559 L73.3033225,78.4641313 Z M66.8471996,117 L67.7224714,117 L68.8502519,116.629829 L70.831227,115.526011 L72.7140042,114.320619 L74.3603707,113.021962 L76.4902523,111.113915 L78.5744272,109.047214 L80.2262554,107.191108 L82.057634,104.91918 L83.7793161,102.74346 L85.0365132,101.062109 L86.4247366,99.0509858 L87.6052381,97.3171735 L89.5118749,94.4077486 L91.1662329,91.7732104 L92.8262826,89.0541227 L94.093311,86.6624983 L95.3464835,84.2401129 L96.1498317,82.7867855 L97.1553249,80.7291459 L98.1346013,78.7004782 L99.0728278,76.5894542 L100.143345,74.0369261 L100.698899,72.5749995 L102.06746,69.02271 L103.097618,65.8228159 L103.834447,62.9883023 L104.281281,60.7968264 L104.872826,57.86195 L105,54.2560453 L104.872826,50.5637442 L104.517577,47.9305912 L103.834447,44.9830757 L102.75312,42.0352716 L101.269401,38.7565416 L99.0728278,35.3715042 L95.7663541,31.719256 L92.3172406,28.7292061 L90.2217396,27.1984856 L87.9596243,25.9022529 L85.4032604,24.6670805 L82.6291134,23.5980636 L79.1975351,22.4544816 L76.3022506,21.848438 L70.831227,21 L66.6884617,21 L61.0672092,21 L56.3562416,21.848438 L51.9966131,23.0664697 L47.6388244,24.6670805 L43.4887575,26.8108855 L39.9317873,29.2531242 L36.2551169,32.774364 L33.7983306,35.7307673 L32.5571166,37.6015324 L31.0023938,40.5368705 L29.5375899,44.0587452 L28.5963738,47.613574 L28.1502864,50.8653521 L28,53.4684367 L28,56.6685041 L28.1502864,58.6522134 L28.4505718,60.4501447 L29.3095156,63.9202509 L30.3387533,67.6222477 L32.0303092,72.3256218 L34.1944566,77.3954731 L37.5492244,84.2401129 L40.2296005,89.0541227 L43.0304817,93.7475702 L45.1834755,97.1742763 L48.8054127,102.21429 L51.7499686,105.983003 L54.8117526,109.413576 L58.039806,112.56401 L61.529682,115.224634 L63.2514791,116.163105 L64.5432294,116.629829 L65.3982062,117 L66.8471996,117 Z" id="Path-3" fill="#FAFAFA" fill-rule="nonzero" mask="url(#mask-2)"></path>
            </g>
        </g>
    </g>
</svg>